<?xml version="1.0" encoding="utf-8"?>
<!-- Generator: Adobe Illustrator 16.0.0, SVG Export Plug-In . SVG Version: 6.00 Build 0)  -->
<!DOCTYPE svg PUBLIC "-//W3C//DTD SVG 1.1//EN" "http://www.w3.org/Graphics/SVG/1.1/DTD/svg11.dtd">
<svg version="1.1" id="图层_1" xmlns="http://www.w3.org/2000/svg" xmlns:xlink="http://www.w3.org/1999/xlink" x="0px" y="0px"
	 width="100px" height="100px" viewBox="0 0 100 100" enable-background="new 0 0 100 100" xml:space="preserve">
<g id="第一名">
	<path fill-rule="evenodd" clip-rule="evenodd" fill="#F90B0B" d="M26.484,43.28c1.495-2.109,2.971-4.118,4.351-6.192
		c0.351-0.529,0.549-1.264,0.547-1.903c-0.008-2.413-0.127-4.827-0.209-7.364c2.113-0.36,4.189-0.753,6.278-1.057
		c1.299-0.188,2.415-0.495,3.332-1.605c1.42-1.72,3.041-3.272,4.648-4.973c1.981,1.398,3.99,2.734,5.895,4.202
		c0.843,0.649,1.698,0.751,2.661,0.716c2.27-0.083,4.539-0.154,6.912-0.235c0.402,2.38,0.83,4.713,1.174,7.057
		c0.129,0.874,0.404,1.547,1.095,2.162c1.807,1.606,3.526,3.311,5.358,5.048c-1.314,1.85-2.584,3.729-3.955,5.53
		c-0.756,0.991-1.055,1.972-0.948,3.237c0.183,2.187,0.146,4.391,0.202,6.683c-1.177,0.22-2.35,0.455-3.529,0.656
		c-1.373,0.235-2.756,0.405-4.121,0.678c-0.428,0.084-0.896,0.32-1.198,0.631c-1.79,1.835-3.538,3.711-5.388,5.669
		c-1.31-0.927-2.708-1.701-3.836-2.763c-2.138-2.01-4.598-2.407-7.367-2.057c-1.37,0.172-2.771,0.099-4.262,0.14
		c-0.389-2.251-0.846-4.467-1.126-6.705c-0.146-1.172-0.576-2.038-1.452-2.815C29.82,46.488,28.173,44.872,26.484,43.28z
		 M48.529,52.724c6.672-1.225,11-5.786,10.37-12.706c-0.613-6.744-5.65-11.105-12.646-10.417
		c-6.987,0.688-11.08,5.933-10.373,12.681C36.603,49.168,41.719,52.822,48.529,52.724z"/>
	<path fill-rule="evenodd" clip-rule="evenodd" fill="#F90B0B" d="M28.483,75.455c1.196-4.843,2.33-9.487,3.519-14.119
		c0.073-0.29,0.56-0.662,0.868-0.675c2.783-0.112,5.569-0.162,8.354-0.202c0.303-0.005,0.657,0.101,0.906,0.272
		c1.419,0.979,2.824,1.978,4.205,3.011c0.239,0.18,0.524,0.598,0.468,0.83c-1.114,4.686-2.275,9.359-3.482,14.266
		c-0.4-0.362-0.708-0.576-0.931-0.854c-1.51-1.889-3.032-3.769-4.482-5.701c-0.479-0.637-0.864-0.659-1.542-0.344
		C33.821,73.117,31.245,74.229,28.483,75.455z"/>
	<path fill-rule="evenodd" clip-rule="evenodd" fill="#F90B0B" d="M59.009,77.346c-0.601-1.242-1.095-2.241-1.567-3.25
		c-1.506-3.207-2.994-6.422-4.517-9.622c-0.28-0.591-0.321-1.015,0.2-1.527c1.176-1.157,2.267-2.398,3.415-3.584
		c0.214-0.221,0.519-0.433,0.812-0.488c2.775-0.512,5.555-1.008,8.341-1.452c0.287-0.047,0.72,0.196,0.928,0.438
		c0.274,0.32,0.396,0.772,0.581,1.169c1.854,3.962,3.707,7.923,5.638,12.049c-2.889-0.647-5.626-1.212-8.334-1.896
		c-0.864-0.218-1.217-0.006-1.581,0.759c-1.011,2.112-2.107,4.187-3.182,6.27C59.572,76.538,59.342,76.834,59.009,77.346z"/>
	<path fill-rule="evenodd" clip-rule="evenodd" fill="#F90B0B" d="M43.722,38.875c-0.241-0.748-0.47-1.355-0.618-1.982
		c-0.043-0.18,0.088-0.512,0.244-0.611c1.656-1.052,3.249-2.307,5.508-1.882c0.42,4.264,0.848,8.607,1.278,12.971
		c-1.02,0.101-1.988,0.195-3.049,0.3c-0.332-3.365-0.657-6.667-1.002-10.168C45.26,37.981,44.582,38.375,43.722,38.875z"/>
</g>
</svg>
